<svg width="100%" height="100%" viewBox="0 0 30 26" fill="none" xmlns="http://www.w3.org/2000/svg">
<path d="M24.1002 0L17.6002 5.85V20.15L24.1002 14.3V0ZM7.85019 3.9C5.3152 3.9 2.5852 4.42 0.700195 5.85V24.908C0.700195 25.233 1.0252 25.558 1.3502 25.558C1.4802 25.558 1.5452 25.467 1.6752 25.467C3.4302 24.622 5.9652 24.05 7.85019 24.05C10.3852 24.05 13.1152 24.57 15.0002 26C16.7552 24.895 19.9402 24.05 22.1502 24.05C24.2952 24.05 26.5052 24.453 28.3252 25.428C28.4552 25.493 28.5202 25.467 28.6502 25.467C28.9752 25.467 29.3002 25.142 29.3002 24.817V5.85C28.5202 5.265 27.6752 4.875 26.7002 4.55V7.15V14.3V22.1C25.2702 21.645 23.7102 21.45 22.1502 21.45C19.9402 21.45 16.7552 22.295 15.0002 23.4V14.3V8.45V5.85C13.1152 4.42 10.3852 3.9 7.85019 3.9Z" fill="#FCF9F2"/>
</svg>
