<svg width="100%" height="100%" viewBox="0 0 24 26" fill="none" xmlns="http://www.w3.org/2000/svg">
<path d="M21.0998 23.4H2.8998V9.1H21.0998V23.4ZM17.1998 0V2.6H6.79981V0H4.1998V2.6H2.8998C1.4568 2.6 0.299805 3.757 0.299805 5.2V23.4C0.299805 24.0896 0.573732 24.7509 1.06133 25.2385C1.54892 25.7261 2.21024 26 2.8998 26H21.0998C21.7894 26 22.4507 25.7261 22.9383 25.2385C23.4259 24.7509 23.6998 24.0896 23.6998 23.4V5.2C23.6998 3.757 22.5298 2.6 21.0998 2.6H19.7998V0H17.1998ZM18.4998 14.3H11.9998V20.8H18.4998V14.3Z" fill="#403434"/>
</svg>
