<svg width="100%" height="100%" viewBox="0 0 26 26" fill="none" xmlns="http://www.w3.org/2000/svg">
<path d="M22.6587 14.274C22.7107 13.858 22.7497 13.442 22.7497 13C22.7497 12.558 22.7107 12.142 22.6587 11.726L25.4017 9.581C25.6487 9.386 25.7137 9.035 25.5577 8.749L22.9577 4.251C22.8017 3.965 22.4507 3.861 22.1647 3.965L18.9277 5.265C18.2517 4.745 17.5237 4.316 16.7307 3.991L16.2367 0.546C16.1977 0.234 15.9247 0 15.5997 0H10.3997C10.0747 0 9.80169 0.234 9.7627 0.546L9.26869 3.991C8.47569 4.316 7.74769 4.758 7.07169 5.265L3.83469 3.965C3.53569 3.848 3.19769 3.965 3.04169 4.251L0.441693 8.749C0.272693 9.035 0.350694 9.386 0.597694 9.581L3.34069 11.726C3.28869 12.142 3.24969 12.571 3.24969 13C3.24969 13.429 3.28869 13.858 3.34069 14.274L0.597694 16.419C0.350694 16.614 0.285693 16.965 0.441693 17.251L3.04169 21.749C3.19769 22.035 3.54869 22.139 3.83469 22.035L7.07169 20.735C7.74769 21.255 8.47569 21.684 9.26869 22.009L9.7627 25.454C9.80169 25.766 10.0747 26 10.3997 26H15.5997C15.9247 26 16.1977 25.766 16.2367 25.454L16.7307 22.009C17.5237 21.684 18.2517 21.242 18.9277 20.735L22.1647 22.035C22.4637 22.152 22.8017 22.035 22.9577 21.749L25.5577 17.251C25.7137 16.965 25.6487 16.614 25.4017 16.419L22.6587 14.274ZM12.9997 17.55C10.4907 17.55 8.44969 15.509 8.44969 13C8.44969 10.491 10.4907 8.45 12.9997 8.45C15.5087 8.45 17.5497 10.491 17.5497 13C17.5497 15.509 15.5087 17.55 12.9997 17.55Z" fill="#FCF9F2"/>
</svg>
