<svg width="100%" height="100%" viewBox="0 0 40 40" fill="none" xmlns="http://www.w3.org/2000/svg">
<g clip-path="url(#clip0_2301_46167)">
<circle cx="20" cy="20" r="20" fill="#3C4D5D"/>
<g clip-path="url(#clip1_2301_46167)">
<path d="M20 29.7736L14.6967 24.4703C13.6478 23.4214 12.9335 22.085 12.6441 20.6301C12.3547 19.1753 12.5033 17.6673 13.0709 16.2968C13.6386 14.9264 14.5999 13.7551 15.8332 12.931C17.0666 12.1069 18.5166 11.667 20 11.667C21.4834 11.667 22.9334 12.1069 24.1668 12.931C25.4001 13.7551 26.3614 14.9264 26.9291 16.2968C27.4968 17.6673 27.6453 19.1753 27.3559 20.6301C27.0665 22.085 26.3522 23.4214 25.3033 24.4703L20 29.7736ZM24.125 23.2919C24.9408 22.4761 25.4963 21.4367 25.7213 20.3052C25.9463 19.1736 25.8308 18.0008 25.3892 16.9349C24.9477 15.869 24.2 14.958 23.2408 14.3171C22.2815 13.6761 21.1537 13.334 20 13.334C18.8463 13.334 17.7185 13.6761 16.7592 14.3171C15.8 14.958 15.0523 15.869 14.6108 16.9349C14.1692 18.0008 14.0537 19.1736 14.2787 20.3052C14.5037 21.4367 15.0593 22.4761 15.875 23.2919L20 27.4169L24.125 23.2919ZM20 20.8336C19.558 20.8336 19.1341 20.658 18.8215 20.3454C18.5089 20.0329 18.3333 19.609 18.3333 19.1669C18.3333 18.7249 18.5089 18.301 18.8215 17.9884C19.1341 17.6759 19.558 17.5003 20 17.5003C20.442 17.5003 20.866 17.6759 21.1785 17.9884C21.4911 18.301 21.6667 18.7249 21.6667 19.1669C21.6667 19.609 21.4911 20.0329 21.1785 20.3454C20.866 20.658 20.442 20.8336 20 20.8336Z" fill="white"/>
</g>
</g>
<defs>
<clipPath id="clip0_2301_46167">
<rect width="40" height="40" fill="white"/>
</clipPath>
<clipPath id="clip1_2301_46167">
<rect width="20" height="20" fill="white" transform="translate(10 10)"/>
</clipPath>
</defs>
</svg>
