<svg width="100%" height="100%" viewBox="0 0 40 40" fill="none" xmlns="http://www.w3.org/2000/svg">
<g clip-path="url(#clip0_2301_46161)">
<circle cx="20" cy="20" r="20" fill="#3C4D5D"/>
<g clip-path="url(#clip1_2301_46161)">
<path d="M17.805 18.9017C18.5869 20.2754 19.7246 21.4131 21.0983 22.195L21.835 21.1633C21.9535 20.9974 22.1286 20.8807 22.3273 20.8353C22.526 20.7898 22.7345 20.8188 22.9133 20.9167C24.0919 21.5608 25.3935 21.9481 26.7325 22.0533C26.9415 22.0699 27.1365 22.1646 27.2788 22.3186C27.421 22.4726 27.5 22.6745 27.5 22.8842V26.6025C27.5 26.8088 27.4235 27.0078 27.2853 27.161C27.1471 27.3142 26.9569 27.4106 26.7517 27.4317C26.31 27.4775 25.865 27.5 25.4167 27.5C18.2833 27.5 12.5 21.7167 12.5 14.5833C12.5 14.135 12.5225 13.69 12.5683 13.2483C12.5894 13.0431 12.6858 12.8529 12.839 12.7147C12.9922 12.5765 13.1912 12.5 13.3975 12.5H17.1158C17.3255 12.5 17.5274 12.579 17.6814 12.7212C17.8354 12.8635 17.9301 13.0585 17.9467 13.2675C18.0519 14.6065 18.4392 15.9081 19.0833 17.0867C19.1812 17.2655 19.2102 17.474 19.1647 17.6727C19.1193 17.8714 19.0026 18.0465 18.8367 18.165L17.805 18.9017ZM15.7033 18.3542L17.2867 17.2233C16.8373 16.2534 16.5295 15.224 16.3725 14.1667H14.175C14.17 14.305 14.1675 14.4442 14.1675 14.5833C14.1667 20.7967 19.2033 25.8333 25.4167 25.8333C25.5558 25.8333 25.695 25.8308 25.8333 25.825V23.6275C24.776 23.4705 23.7466 23.1627 22.7767 22.7133L21.6458 24.2967C21.1906 24.1198 20.7483 23.9109 20.3225 23.6717L20.2742 23.6442C18.6396 22.7139 17.2861 21.3604 16.3558 19.7258L16.3283 19.6775C16.0891 19.2517 15.8802 18.8094 15.7033 18.3542Z" fill="white"/>
</g>
</g>
<defs>
<clipPath id="clip0_2301_46161">
<rect width="40" height="40" fill="white"/>
</clipPath>
<clipPath id="clip1_2301_46161">
<rect width="20" height="20" fill="white" transform="translate(10 10)"/>
</clipPath>
</defs>
</svg>
