<svg width="100%" height="100%" viewBox="0 0 40 40" fill="none" xmlns="http://www.w3.org/2000/svg">
<g clip-path="url(#clip0_2301_46155)">
<circle cx="20" cy="20" r="20" fill="#6BC8C4"/>
<g clip-path="url(#clip1_2301_46155)">
<path d="M12.5003 12.5H27.5003C27.7213 12.5 27.9333 12.5878 28.0896 12.7441C28.2459 12.9004 28.3337 13.1123 28.3337 13.3333V26.6667C28.3337 26.8877 28.2459 27.0996 28.0896 27.2559C27.9333 27.4122 27.7213 27.5 27.5003 27.5H12.5003C12.2793 27.5 12.0674 27.4122 11.9111 27.2559C11.7548 27.0996 11.667 26.8877 11.667 26.6667V13.3333C11.667 13.1123 11.7548 12.9004 11.9111 12.7441C12.0674 12.5878 12.2793 12.5 12.5003 12.5ZM26.667 16.0317L20.0603 21.9483L13.3337 16.0133V25.8333H26.667V16.0317ZM13.7595 14.1667L20.0512 19.7183L26.252 14.1667H13.7595Z" fill="white"/>
</g>
</g>
<defs>
<clipPath id="clip0_2301_46155">
<rect width="40" height="40" fill="white"/>
</clipPath>
<clipPath id="clip1_2301_46155">
<rect width="20" height="20" fill="white" transform="translate(10 10)"/>
</clipPath>
</defs>
</svg>
