<svg width="100%" height="100%" viewBox="0 0 162 45" fill="none" xmlns="http://www.w3.org/2000/svg">
<path d="M25.2424 0.0205078L7.93262 40.07L9.86966 41.2843L25.2424 0.0205078Z" fill="white"/>
<path d="M25.2429 0.0205078L7.83008 31.6526C8.201 32.908 8.32464 34.1428 8.24221 35.3571L25.2429 0.0205078Z" fill="white"/>
<path d="M5.95605 27.8453C6.3888 28.4421 6.75972 29.0801 7.08943 29.6975L25.2647 0L5.95605 27.8453Z" fill="white"/>
<path d="M3.40039 25.1698C3.89495 25.5608 4.36891 26.0136 4.82226 26.4869L25.2436 0.0205078L3.40039 25.1698Z" fill="white"/>
<path d="M0 23.1735C0.638812 23.4204 1.25702 23.7497 1.85462 24.0996L25.2434 0.0205078L0 23.1735Z" fill="white"/>
<path d="M27.6338 14.9219L11.1689 41.5324L28.3138 17.124C28.0872 16.3625 27.8605 15.6422 27.6338 14.9219Z" fill="white"/>
<path d="M26.4376 9.85742L11.168 41.5307L27.0558 12.8004C26.8292 11.792 26.6231 10.8247 26.4376 9.85742Z" fill="white"/>
<path d="M25.7771 1.79102L11.1875 41.5112L26.0244 6.99787C25.7771 5.14563 25.7153 3.39629 25.7771 1.79102Z" fill="white"/>
<path d="M29.505 20.293C29.3196 19.8197 29.1341 19.3463 28.9692 18.8936L11.1855 41.532L29.6699 20.6635C29.6081 20.5194 29.5462 20.4165 29.505 20.293Z" fill="white"/>
<path d="M30.3304 22.2275L11.166 41.5114L31.0104 23.7093C30.7837 23.236 30.5571 22.742 30.3304 22.2275Z" fill="white"/>
<path d="M43.8943 31.2823C42.8021 31.2823 41.7512 31.0765 40.7621 30.7061C39.7523 30.315 38.9899 29.8211 38.4541 29.2037L39.0723 27.8866C39.5875 28.4422 40.2881 28.895 41.1536 29.286C42.0191 29.6565 42.9464 29.8417 43.9149 29.8417C44.8422 29.8417 45.5841 29.7182 46.1611 29.4713C46.7381 29.2243 47.1708 28.8744 47.4387 28.4422C47.7066 28.01 47.8508 27.5367 47.8508 27.0222C47.8508 26.3842 47.686 25.8903 47.3563 25.4992C47.0265 25.1082 46.5938 24.8201 46.058 24.5937C45.5223 24.3673 44.9453 24.1821 44.3064 23.9969C43.6676 23.8322 43.0288 23.647 42.3694 23.4618C41.7306 23.2765 41.133 23.009 40.5972 22.7003C40.0614 22.3916 39.6287 21.9594 39.299 21.4243C38.9693 20.8892 38.8044 20.2101 38.8044 19.3457C38.8044 18.5431 38.9899 17.8227 39.3814 17.1436C39.7729 16.485 40.3499 15.9293 41.1536 15.5383C41.9573 15.1267 42.967 14.9209 44.224 14.9209C45.0483 14.9209 45.8726 15.0444 46.6762 15.2913C47.4799 15.5383 48.1805 15.8882 48.7781 16.3409L48.263 17.6993C47.6241 17.2465 46.9647 16.8966 46.2641 16.6908C45.5635 16.485 44.8834 16.3615 44.224 16.3615C43.3379 16.3615 42.6167 16.485 42.0397 16.7526C41.4627 17.0201 41.0506 17.37 40.7621 17.8022C40.4942 18.2343 40.3499 18.7283 40.3499 19.2839C40.3499 19.9219 40.5148 20.4159 40.8445 20.8069C41.1742 21.1979 41.6069 21.4861 42.1427 21.7124C42.6785 21.9182 43.2761 22.124 43.9149 22.2887C44.5537 22.4533 45.1925 22.6386 45.8313 22.8444C46.4702 23.0502 47.0471 23.2971 47.5829 23.6058C48.1187 23.9145 48.5514 24.3467 48.8812 24.8612C49.2109 25.3757 49.3757 26.0755 49.3757 26.8987C49.3757 27.6808 49.1697 28.4011 48.7987 29.0802C48.4072 29.7388 47.8096 30.2945 47.0059 30.6855C46.1817 31.0765 45.1513 31.2823 43.8943 31.2823Z" fill="white"/>
<path d="M55.5576 31.1389V15.0244H57.1031V31.1389H55.5576Z" fill="white"/>
<path d="M71.1358 31.2834C70.023 31.2834 68.9927 31.0776 68.0447 30.666C67.0968 30.2544 66.2932 29.6781 65.5925 28.9578C64.8919 28.2169 64.3561 27.3525 63.9852 26.3647C63.5937 25.3768 63.4082 24.286 63.4082 23.0924C63.4082 21.9193 63.5937 20.8285 63.9852 19.8201C64.3767 18.8322 64.9125 17.9473 65.6131 17.227C66.3138 16.4861 67.138 15.9098 68.086 15.5188C69.0339 15.1072 70.0642 14.9014 71.177 14.9014C72.2898 14.9014 73.3201 15.0866 74.2474 15.4776C75.1747 15.8686 75.9784 16.4449 76.6172 17.227L75.6487 18.3177C75.0305 17.6386 74.3504 17.1652 73.6086 16.8771C72.8667 16.589 72.0631 16.4449 71.2182 16.4449C70.3115 16.4449 69.4666 16.6095 68.7042 16.9388C67.9417 17.2681 67.2823 17.7415 66.7053 18.3383C66.1489 18.9351 65.6956 19.6554 65.3865 20.4581C65.0774 21.2607 64.9125 22.1457 64.9125 23.113C64.9125 24.0597 65.0774 24.9446 65.3865 25.7678C65.6956 26.591 66.1489 27.2908 66.7053 27.8876C67.2617 28.4844 67.9417 28.9578 68.7042 29.2871C69.4666 29.6164 70.2909 29.781 71.1976 29.781C72.0425 29.781 72.8255 29.6369 73.5674 29.3694C74.3092 29.1019 75.0099 28.6285 75.6281 27.9699L76.5142 29.2665C75.8135 29.9456 74.9892 30.4602 74.0619 30.7895C73.1346 31.1187 72.1455 31.2834 71.1358 31.2834ZM75.0305 29.0195V23.0924H76.5142V29.2459L75.0305 29.0195Z" fill="white"/>
<path d="M83.7266 31.1379V15.0234H85.0042L95.1221 29.0181H94.4421V15.0234H95.967V31.1379H94.71L84.6127 17.1432H85.2927V31.1379H83.7266Z" fill="white"/>
<path d="M105.116 29.6776H113.936V31.1594H103.57V15.0449H113.626V16.5267H105.116V29.6776ZM104.951 22.2481H112.72V23.6887H104.951V22.2481Z" fill="white"/>
<path d="M123.272 31.1389V16.5062H118.12V15.0244H129.99V16.5062H124.838V31.1389H123.272Z" fill="white"/>
<path d="M132.175 31.1379L138.893 15.0234H140.418L147.135 31.1379H145.507L139.346 16.0113H139.985L133.823 31.1379H132.175ZM134.812 26.8366L135.266 25.4577H143.797L144.25 26.8366H134.812Z" fill="white"/>
<path d="M156.407 31.2823C155.315 31.2823 154.264 31.0765 153.275 30.7061C152.265 30.315 151.503 29.8211 150.967 29.2037L151.585 27.8866C152.1 28.4422 152.801 28.895 153.666 29.286C154.532 29.6565 155.459 29.8417 156.428 29.8417C157.355 29.8417 158.097 29.7182 158.674 29.4713C159.251 29.2243 159.683 28.8744 159.951 28.4422C160.219 28.01 160.364 27.5367 160.364 27.0222C160.364 26.3842 160.199 25.8903 159.869 25.4992C159.539 25.1082 159.107 24.8201 158.571 24.5937C158.035 24.3673 157.458 24.1821 156.819 23.9969C156.18 23.8322 155.542 23.647 154.882 23.4618C154.243 23.2765 153.646 23.009 153.11 22.7003C152.574 22.371 152.141 21.9594 151.812 21.4243C151.482 20.8892 151.317 20.2101 151.317 19.3457C151.317 18.5431 151.503 17.8227 151.894 17.1436C152.286 16.485 152.863 15.9293 153.666 15.5383C154.47 15.1267 155.48 14.9209 156.737 14.9209C157.561 14.9209 158.385 15.0444 159.189 15.2913C159.993 15.5383 160.693 15.8882 161.291 16.3409L160.776 17.6993C160.137 17.2465 159.477 16.8966 158.777 16.6908C158.076 16.485 157.396 16.3615 156.737 16.3615C155.851 16.3615 155.129 16.485 154.552 16.7526C153.975 17.0201 153.563 17.37 153.275 17.8022C153.007 18.2343 152.863 18.7283 152.863 19.2839C152.863 19.9219 153.027 20.4159 153.357 20.8069C153.687 21.1979 154.12 21.4861 154.655 21.7124C155.191 21.9182 155.789 22.124 156.428 22.2887C157.066 22.4533 157.705 22.6386 158.344 22.8444C158.983 23.0502 159.56 23.2971 160.096 23.6058C160.631 23.9145 161.064 24.3467 161.394 24.8612C161.724 25.3757 161.888 26.0755 161.888 26.8987C161.888 27.6808 161.682 28.4011 161.311 29.0802C160.92 29.7388 160.322 30.2945 159.519 30.6855C158.694 31.0765 157.664 31.2823 156.407 31.2823Z" fill="white"/>
</svg>
