<svg width="100%" height="100%" viewBox="0 0 148 38" fill="none" xmlns="http://www.w3.org/2000/svg">
<path d="M23.0788 0.0195312L7.25391 36.6637L9.02478 37.7747L23.0788 0.0195312Z" fill="white"/>
<path d="M23.0792 0.0195312L7.16016 28.962C7.49926 30.1107 7.61229 31.2405 7.53694 32.3515L23.0792 0.0195312Z" fill="white"/>
<path d="M5.44531 25.4777C5.84093 26.0238 6.18004 26.6075 6.48146 27.1724L23.0976 0L5.44531 25.4777Z" fill="white"/>
<path d="M3.10938 23.0304C3.56151 23.3882 3.99481 23.8025 4.40927 24.2356L23.0788 0.0195312L3.10938 23.0304Z" fill="white"/>
<path d="M0 21.2039C0.584012 21.4298 1.14919 21.7311 1.69552 22.0512L23.0779 0.0195312L0 21.2039Z" fill="white"/>
<path d="M25.2634 13.6523L10.2109 38.0002L25.8851 15.6672C25.6778 14.9705 25.4706 14.3114 25.2634 13.6523Z" fill="white"/>
<path d="M24.1707 9.01953L10.2109 37.9997L24.7359 11.7123C24.5287 10.7896 24.3403 9.90457 24.1707 9.01953Z" fill="white"/>
<path d="M23.5686 1.63867L10.2305 37.9816L23.7946 6.4028C23.5686 4.70805 23.512 3.10745 23.5686 1.63867Z" fill="white"/>
<path d="M26.9784 18.5676C26.8089 18.1345 26.6393 17.7014 26.4886 17.2871L10.2305 38.0007L27.1291 18.9065C27.0726 18.7747 27.0161 18.6806 26.9784 18.5676Z" fill="white"/>
<path d="M27.7313 20.3379L10.2109 37.9821L28.353 21.6937C28.1458 21.2606 27.9385 20.8087 27.7313 20.3379Z" fill="white"/>
<path d="M40.1259 28.6226C39.1274 28.6226 38.1666 28.4343 37.2623 28.0953C36.3392 27.7376 35.6422 27.2856 35.1523 26.7207L35.7175 25.5156C36.1885 26.024 36.829 26.4383 37.6203 26.796C38.4115 27.135 39.2593 27.3045 40.1447 27.3045C40.9925 27.3045 41.6707 27.1915 42.1982 26.9655C42.7257 26.7395 43.1213 26.4194 43.3662 26.024C43.6111 25.6285 43.743 25.1954 43.743 24.7247C43.743 24.1409 43.5923 23.689 43.2908 23.3312C42.9894 22.9734 42.5938 22.7098 42.104 22.5027C41.6142 22.2956 41.0867 22.1261 40.5027 21.9566C39.9186 21.806 39.3346 21.6365 38.7318 21.467C38.1478 21.2975 37.6014 21.0527 37.1116 20.7703C36.6218 20.4878 36.2262 20.0924 35.9247 19.6028C35.6233 19.1132 35.4726 18.4918 35.4726 17.7009C35.4726 16.9665 35.6422 16.3074 36.0001 15.686C36.358 15.0835 36.8855 14.575 37.6203 14.2173C38.355 13.8406 39.2781 13.6523 40.4273 13.6523C41.1809 13.6523 41.9344 13.7653 42.6691 13.9913C43.4039 14.2173 44.0444 14.5374 44.5907 14.9516L44.1198 16.1945C43.5357 15.7802 42.9329 15.4601 42.2924 15.2718C41.6518 15.0835 41.0301 14.9705 40.4273 14.9705C39.6172 14.9705 38.9578 15.0835 38.4303 15.3283C37.9029 15.5731 37.5261 15.8932 37.2623 16.2886C37.0174 16.6841 36.8855 17.136 36.8855 17.6444C36.8855 18.2282 37.0363 18.6801 37.3377 19.0379C37.6391 19.3957 38.0347 19.6593 38.5245 19.8664C39.0144 20.0547 39.5607 20.243 40.1447 20.3937C40.7287 20.5443 41.3127 20.7138 41.8967 20.9021C42.4808 21.0904 43.0082 21.3164 43.4981 21.5988C43.9879 21.8813 44.3835 22.2767 44.6849 22.7475C44.9864 23.2182 45.1371 23.8585 45.1371 24.6117C45.1371 25.3273 44.9487 25.9863 44.6096 26.6077C44.2516 27.2103 43.7053 27.7187 42.9706 28.0765C42.217 28.4343 41.2751 28.6226 40.1259 28.6226Z" fill="white"/>
<path d="M50.7891 28.4904V13.7461H52.202V28.4904H50.7891Z" fill="white"/>
<path d="M65.0334 28.6219C64.0161 28.6219 63.0741 28.4336 62.2075 28.057C61.3409 27.6804 60.6062 27.1531 59.9657 26.4941C59.3252 25.8162 58.8354 25.0253 58.4963 24.1214C58.1383 23.2175 57.9688 22.2195 57.9688 21.1274C57.9688 20.054 58.1383 19.056 58.4963 18.1333C58.8542 17.2294 59.344 16.4197 59.9845 15.7607C60.6251 15.0828 61.3786 14.5555 62.2452 14.1977C63.1118 13.8211 64.0538 13.6328 65.0711 13.6328C66.0884 13.6328 67.0304 13.8023 67.8781 14.1601C68.7259 14.5178 69.4606 15.0451 70.0446 15.7607L69.1592 16.7587C68.594 16.1373 67.9723 15.7042 67.2941 15.4405C66.6159 15.1769 65.8812 15.0451 65.1088 15.0451C64.2799 15.0451 63.5074 15.1957 62.8104 15.497C62.1134 15.7983 61.5105 16.2314 60.983 16.7775C60.4744 17.3236 60.0599 17.9827 59.7773 18.7171C59.4947 19.4514 59.344 20.2612 59.344 21.1462C59.344 22.0124 59.4947 22.8221 59.7773 23.5753C60.0599 24.3285 60.4744 24.9688 60.983 25.5149C61.4917 26.061 62.1134 26.4941 62.8104 26.7953C63.5074 27.0966 64.261 27.2473 65.0899 27.2473C65.8623 27.2473 66.5782 27.1155 67.2564 26.8707C67.9346 26.6259 68.5752 26.1928 69.1403 25.5902L69.9504 26.7765C69.3099 27.3979 68.5563 27.8687 67.7086 28.17C66.8608 28.4713 65.9565 28.6219 65.0334 28.6219ZM68.594 26.5505V21.1274H69.9504V26.7577L68.594 26.5505Z" fill="white"/>
<path d="M76.5391 28.4904V13.7461H77.7071L86.9571 26.5508H86.3354V13.7461H87.7295V28.4904H86.5803L77.3491 15.6856H77.9708V28.4904H76.5391Z" fill="white"/>
<path d="M96.0965 27.1541H104.16V28.5099H94.6836V13.7656H103.877V15.1214H96.0965V27.1541ZM95.9458 20.3563H103.048V21.6744H95.9458V20.3563Z" fill="white"/>
<path d="M112.694 28.4904V15.1019H107.984V13.7461H118.836V15.1019H114.126V28.4904H112.694Z" fill="white"/>
<path d="M120.832 28.4904L126.974 13.7461H128.368L134.509 28.4904H133.021L127.388 14.65H127.972L122.339 28.4904H120.832ZM123.243 24.5548L123.658 23.2932H131.457L131.872 24.5548H123.243Z" fill="white"/>
<path d="M142.989 28.6226C141.991 28.6226 141.03 28.4343 140.126 28.0953C139.202 27.7376 138.505 27.2856 138.016 26.7207L138.581 25.5156C139.052 26.024 139.692 26.4383 140.484 26.796C141.275 27.135 142.123 27.3045 143.008 27.3045C143.856 27.3045 144.534 27.1915 145.061 26.9655C145.589 26.7395 145.985 26.4194 146.229 26.024C146.474 25.6285 146.606 25.1954 146.606 24.7247C146.606 24.1409 146.456 23.689 146.154 23.3312C145.853 22.9734 145.457 22.7098 144.967 22.5027C144.477 22.2956 143.95 22.1261 143.366 21.9566C142.782 21.806 142.198 21.6365 141.595 21.467C141.011 21.2975 140.465 21.0527 139.975 20.7703C139.485 20.469 139.089 20.0924 138.788 19.6028C138.487 19.1132 138.336 18.4918 138.336 17.7009C138.336 16.9665 138.505 16.3074 138.863 15.686C139.221 15.0835 139.749 14.575 140.484 14.2173C141.218 13.8406 142.141 13.6523 143.291 13.6523C144.044 13.6523 144.798 13.7653 145.532 13.9913C146.267 14.2173 146.908 14.5374 147.454 14.9516L146.983 16.1945C146.399 15.7802 145.796 15.4601 145.156 15.2718C144.515 15.0835 143.893 14.9705 143.291 14.9705C142.48 14.9705 141.821 15.0835 141.294 15.3283C140.766 15.5731 140.389 15.8932 140.126 16.2886C139.881 16.6841 139.749 17.136 139.749 17.6444C139.749 18.2282 139.9 18.6801 140.201 19.0379C140.502 19.3957 140.898 19.6593 141.388 19.8664C141.878 20.0547 142.424 20.243 143.008 20.3937C143.592 20.5443 144.176 20.7138 144.76 20.9021C145.344 21.0904 145.872 21.3164 146.361 21.5988C146.851 21.8813 147.247 22.2767 147.548 22.7475C147.85 23.2182 148 23.8585 148 24.6117C148 25.3273 147.812 25.9863 147.473 26.6077C147.115 27.2103 146.569 27.7187 145.834 28.0765C145.08 28.4343 144.138 28.6226 142.989 28.6226Z" fill="white"/>
</svg>
