<svg width="100%" height="100%" viewBox="0 0 100 100" fill="none" xmlns="http://www.w3.org/2000/svg">
<ellipse cx="50" cy="30" rx="25" ry="13" fill="#FFD600"/>
<path d="M23.334 70V30" stroke="#333333" stroke-width="4" stroke-linecap="round"/>
<path d="M76.666 30V70" stroke="#333333" stroke-width="4" stroke-linecap="round"/>
<path d="M50.0007 43.3337C64.7282 43.3337 76.6673 37.3641 76.6673 30.0003C76.6673 22.6365 64.7282 16.667 50.0007 16.667C35.2731 16.667 23.334 22.6365 23.334 30.0003C23.334 37.3641 35.2731 43.3337 50.0007 43.3337Z" stroke="#333333" stroke-width="4"/>
<path opacity="0.5" d="M76.6673 50C76.6673 57.3638 64.7282 63.3333 50.0007 63.3333C35.2731 63.3333 23.334 57.3638 23.334 50" stroke="#333333" stroke-width="4"/>
<path d="M76.6673 70C76.6673 77.3638 64.7282 83.3333 50.0007 83.3333C35.2731 83.3333 23.334 77.3638 23.334 70" stroke="#333333" stroke-width="4"/>
</svg>
