<svg width="100%" height="100%" viewBox="0 0 100 100" fill="none" xmlns="http://www.w3.org/2000/svg">
<path d="M18 29C18 26.2386 20.2386 24 23 24H76.5C79.2614 24 81.5 26.2386 81.5 29V41.4H18V29Z" fill="#FFD600"/>
<path d="M16.666 49.9997C16.666 37.4289 16.666 31.1435 20.5713 27.2383C24.4765 23.333 30.7619 23.333 43.3327 23.333H56.666C69.2368 23.333 75.5222 23.333 79.4274 27.2383C83.3327 31.1435 83.3327 37.4289 83.3327 49.9997C83.3327 62.5705 83.3327 68.8559 79.4274 72.7611C75.5222 76.6663 69.2368 76.6663 56.666 76.6663H43.3327C30.7619 76.6663 24.4765 76.6663 20.5713 72.7611C16.666 68.8559 16.666 62.5705 16.666 49.9997Z" stroke="#333333" stroke-width="4"/>
<path opacity="0.5" d="M43.3333 63.333H30" stroke="#333333" stroke-width="4" stroke-linecap="round"/>
<path opacity="0.5" d="M56.666 63.333H51.666" stroke="#333333" stroke-width="4" stroke-linecap="round"/>
<path opacity="0.5" d="M16.666 43.333L83.3327 43.333" stroke="#333333" stroke-width="4" stroke-linecap="round"/>
</svg>
