<svg width="100%" height="100%" viewBox="0 0 100 100" fill="none" xmlns="http://www.w3.org/2000/svg">
<path opacity="0.5" d="M30 40H43.3333" stroke="#333333" stroke-width="4" stroke-linecap="round" stroke-linejoin="round"/>
<path d="M79.4444 43.333H70.7692C64.8215 43.333 60 47.8102 60 53.333C60 58.8559 64.8215 63.333 70.7692 63.333H79.4444C79.7222 63.333 79.8611 63.333 79.9784 63.3259C81.776 63.2165 83.2078 61.8869 83.3256 60.2177C83.3333 60.1088 83.3333 59.9798 83.3333 59.7219V46.9441C83.3333 46.6862 83.3333 46.5572 83.3256 46.4483C83.2078 44.7791 81.776 43.4495 79.9784 43.3401C79.8611 43.333 79.7222 43.333 79.4444 43.333Z" fill="#FFD600" stroke="#333333" stroke-width="4"/>
<circle opacity="0.5" cx="69.9994" cy="53.3333" r="3.33333" fill="#333333"/>
<path d="M79.8828 43.3337C79.6236 37.0927 78.788 33.2661 76.0941 30.5722C72.1889 26.667 65.9035 26.667 53.3327 26.667H43.3327C30.7619 26.667 24.4765 26.667 20.5713 30.5722C16.666 34.4775 16.666 40.7629 16.666 53.3337C16.666 65.9044 16.666 72.1898 20.5713 76.0951C24.4765 80.0003 30.7619 80.0003 43.3327 80.0003H53.3327C65.9035 80.0003 72.1889 80.0003 76.0941 76.0951C78.788 73.4012 79.6236 69.5747 79.8828 63.3337" stroke="#333333" stroke-width="4"/>
<path opacity="0.5" d="M30 26.667L42.4516 18.4108C45.9581 16.0857 50.7085 16.0857 54.2151 18.4108L66.6667 26.667" stroke="#333333" stroke-width="4" stroke-linecap="round"/>
</svg>
