<svg width="100%" height="100%" viewBox="0 0 72 72" fill="none" xmlns="http://www.w3.org/2000/svg">
<path fill-rule="evenodd" clip-rule="evenodd" d="M37.5182 11.3551C31.5079 10.9784 25.5668 12.8085 20.8102 16.5018C16.0536 20.1951 12.8087 25.4976 11.6846 31.4139C10.5605 37.3301 11.6345 43.4533 14.7051 48.6338C15.0195 49.1643 15.1024 49.8006 14.9344 50.3939L12.2992 59.7013L21.6066 57.0661L22.2195 59.231L23.3667 57.2954C28.5472 60.366 34.6704 61.44 40.5866 60.3159C46.5029 59.1918 51.8054 55.9469 55.4987 51.1903C59.192 46.4337 61.0221 40.4926 60.6454 34.4823C60.2688 28.472 57.7112 22.8058 53.4529 18.5475C49.1947 14.2893 43.5285 11.7317 37.5182 11.3551ZM21.925 61.6528C27.8617 64.9074 34.7554 66.0044 41.4266 64.7368C48.4198 63.4081 54.6875 59.5725 59.053 53.9501C63.4186 48.3277 65.5818 41.3051 65.1366 34.2008C64.6914 27.0965 61.6683 20.3989 56.6349 15.3656C51.6016 10.3322 44.904 7.30912 37.7997 6.86389C30.6954 6.41866 23.6728 8.58189 18.0504 12.9475C12.428 17.3131 8.59239 23.5807 7.26367 30.5739C5.99613 37.2451 7.09311 44.1388 10.3477 50.0755L7.96305 58.4978C7.74091 59.2646 7.72806 60.0769 7.92592 60.8504C8.12473 61.6276 8.52894 62.337 9.09621 62.9043C9.66348 63.4716 10.3729 63.8758 11.1501 64.0746C11.9236 64.2724 12.736 64.2596 13.5028 64.0374L21.925 61.6528Z" fill="#333333"/>
<path d="M36 39.375C37.864 39.375 39.375 37.864 39.375 36C39.375 34.136 37.864 32.625 36 32.625C34.136 32.625 32.625 34.136 32.625 36C32.625 37.864 34.136 39.375 36 39.375Z" fill="#333333"/>
<path d="M22.5 39.375C24.364 39.375 25.875 37.864 25.875 36C25.875 34.136 24.364 32.625 22.5 32.625C20.636 32.625 19.125 34.136 19.125 36C19.125 37.864 20.636 39.375 22.5 39.375Z" fill="#333333"/>
<path d="M49.5 39.375C51.364 39.375 52.875 37.864 52.875 36C52.875 34.136 51.364 32.625 49.5 32.625C47.636 32.625 46.125 34.136 46.125 36C46.125 37.864 47.636 39.375 49.5 39.375Z" fill="#333333"/>
</svg>
