<svg width="100%" height="100%" viewBox="0 0 54 54" fill="none" xmlns="http://www.w3.org/2000/svg">
<path fill-rule="evenodd" clip-rule="evenodd" d="M39.3068 5.55676C39.9658 4.89775 41.0342 4.89775 41.6932 5.55676L48.4432 12.3068C49.1023 12.9658 49.1023 14.0342 48.4432 14.6932L28.1932 34.9432C27.8768 35.2597 27.4476 35.4375 27 35.4375H20.25C19.318 35.4375 18.5625 34.682 18.5625 33.75V27C18.5625 26.5524 18.7403 26.1232 19.0568 25.8068L39.3068 5.55676ZM21.9375 27.699V32.0625H26.301L44.8635 13.5L40.5 9.13649L21.9375 27.699Z" fill="#333333"/>
<path fill-rule="evenodd" clip-rule="evenodd" d="M34.2443 10.6193C34.9033 9.96025 35.9717 9.96025 36.6307 10.6193L43.3807 17.3693C44.0398 18.0283 44.0398 19.0967 43.3807 19.7557C42.7217 20.4148 41.6533 20.4148 40.9943 19.7557L34.2443 13.0057C33.5852 12.3467 33.5852 11.2783 34.2443 10.6193Z" fill="#333333"/>
<path fill-rule="evenodd" clip-rule="evenodd" d="M7.73851 7.73851C8.37145 7.10558 9.22989 6.75 10.125 6.75H28.6875C29.6195 6.75 30.375 7.50552 30.375 8.4375C30.375 9.36948 29.6195 10.125 28.6875 10.125L10.125 10.125L10.125 43.875H43.875V25.3125C43.875 24.3805 44.6305 23.625 45.5625 23.625C46.4945 23.625 47.25 24.3805 47.25 25.3125V43.875C47.25 44.7701 46.8944 45.6285 46.2615 46.2615C45.6285 46.8944 44.7701 47.25 43.875 47.25H10.125C9.2299 47.25 8.37145 46.8944 7.73851 46.2615C7.10558 45.6286 6.75 44.7701 6.75 43.875V10.125C6.75 9.22989 7.10558 8.37145 7.73851 7.73851Z" fill="#333333"/>
</svg>
