<svg width="100%" height="100%" viewBox="0 0 72 72" fill="none" xmlns="http://www.w3.org/2000/svg">
<path fill-rule="evenodd" clip-rule="evenodd" d="M36 11.25C22.331 11.25 11.25 22.331 11.25 36C11.25 49.669 22.331 60.75 36 60.75C49.669 60.75 60.75 49.669 60.75 36C60.75 22.331 49.669 11.25 36 11.25ZM6.75 36C6.75 19.8457 19.8457 6.75 36 6.75C52.1543 6.75 65.25 19.8457 65.25 36C65.25 52.1543 52.1543 65.25 36 65.25C19.8457 65.25 6.75 52.1543 6.75 36Z" fill="#333333"/>
<path fill-rule="evenodd" clip-rule="evenodd" d="M42.1724 24.3698C43.0037 25.2935 42.9288 26.7161 42.0052 27.5474L32.6134 36L42.0052 44.4526C42.9288 45.2839 43.0037 46.7065 42.1724 47.6302C41.3411 48.5538 39.9185 48.6287 38.9948 47.7974L27.7448 37.6724C27.2707 37.2457 27 36.6379 27 36C27 35.3622 27.2707 34.7543 27.7448 34.3276L38.9948 24.2026C39.9185 23.3713 41.3411 23.4462 42.1724 24.3698Z" fill="#333333"/>
</svg>
