<svg width="100%" height="100%" viewBox="0 0 72 72" fill="none" xmlns="http://www.w3.org/2000/svg">
<path fill-rule="evenodd" clip-rule="evenodd" d="M11.25 15.75C11.25 13.2647 13.2647 11.25 15.75 11.25H29.25C31.7353 11.25 33.75 13.2647 33.75 15.75V29.25C33.75 31.7353 31.7353 33.75 29.25 33.75H15.75C13.2647 33.75 11.25 31.7353 11.25 29.25V15.75ZM29.25 15.75H15.75V29.25H29.25V15.75Z" fill="#333333"/>
<path fill-rule="evenodd" clip-rule="evenodd" d="M11.25 42.75C11.25 40.2647 13.2647 38.25 15.75 38.25H29.25C31.7353 38.25 33.75 40.2647 33.75 42.75V56.25C33.75 58.7353 31.7353 60.75 29.25 60.75H15.75C13.2647 60.75 11.25 58.7353 11.25 56.25V42.75ZM29.25 42.75H15.75V56.25H29.25V42.75Z" fill="#333333"/>
<path fill-rule="evenodd" clip-rule="evenodd" d="M38.25 15.75C38.25 13.2647 40.2647 11.25 42.75 11.25H56.25C58.7353 11.25 60.75 13.2647 60.75 15.75V29.25C60.75 31.7353 58.7353 33.75 56.25 33.75H42.75C40.2647 33.75 38.25 31.7353 38.25 29.25V15.75ZM56.25 15.75H42.75V29.25H56.25V15.75Z" fill="#333333"/>
<path fill-rule="evenodd" clip-rule="evenodd" d="M40.5 38.25C41.7426 38.25 42.75 39.2574 42.75 40.5V49.5C42.75 50.7426 41.7426 51.75 40.5 51.75C39.2574 51.75 38.25 50.7426 38.25 49.5V40.5C38.25 39.2574 39.2574 38.25 40.5 38.25Z" fill="#333333"/>
<path fill-rule="evenodd" clip-rule="evenodd" d="M49.5 38.25C50.7426 38.25 51.75 39.2574 51.75 40.5V58.5C51.75 59.7426 50.7426 60.75 49.5 60.75H40.5C39.2574 60.75 38.25 59.7426 38.25 58.5C38.25 57.2574 39.2574 56.25 40.5 56.25H47.25V40.5C47.25 39.2574 48.2574 38.25 49.5 38.25Z" fill="#333333"/>
<path fill-rule="evenodd" clip-rule="evenodd" d="M47.25 45C47.25 43.7574 48.2574 42.75 49.5 42.75H58.5C59.7426 42.75 60.75 43.7574 60.75 45C60.75 46.2426 59.7426 47.25 58.5 47.25H49.5C48.2574 47.25 47.25 46.2426 47.25 45Z" fill="#333333"/>
<path fill-rule="evenodd" clip-rule="evenodd" d="M58.5 51.75C59.7426 51.75 60.75 52.7574 60.75 54V58.5C60.75 59.7426 59.7426 60.75 58.5 60.75C57.2574 60.75 56.25 59.7426 56.25 58.5V54C56.25 52.7574 57.2574 51.75 58.5 51.75Z" fill="#333333"/>
</svg>
